<svg xmlns="http://www.w3.org/2000/svg" viewBox="0 0 100 100"><defs><style>.cls-1{fill:#db9e75;}.cls-2{fill:#4f3b26;}.cls-3{fill:#493726;}.cls-4{fill:#3a2c22;}.cls-5{fill:#704f16;}.cls-6{fill:#b29c87;}.cls-7{fill:#ba9856;}.cls-8{fill:#38291b;}.cls-9{fill:#1a1a1a;}.cls-10{fill:#fff;}.cls-11{fill:#af8e54;}</style></defs><title>ANXIETY DOG</title><g id="Layer_6" data-name="Layer 6"><rect class="cls-1" x="0.24" width="99.56" height="99.56" rx="4" ry="4"/><path id="body" class="cls-2" d="M24.35,99.33c-1.54-3.88-1.55-5.71-1.55-10.14A34.25,34.25,0,0,1,80,63.9l20,21.68,0,1.73C99.81,100,101,100,87.51,99.53Z"/><path id="head" class="cls-3" d="M72.29,64.61c0,16.13-19,28.12-35.16,28.12-3.53,0,0,0-4.72.44-3-1.19-8.5-1.15-9.61-4C21.38,80.57,27,35.42,43.09,35.42A29.19,29.19,0,0,1,72.29,64.61Z"/><path id="head-2" data-name="head" class="cls-4" d="M71.65,58.68c0,16.12-19,28.12-35.15,28.12-3.54,0,0,0-4.73.44-3-1.19-7.38-1-8.48-3.8-1.42-8.62-10-12.41-10-24.76a29.19,29.19,0,0,1,58.38,0Z"/><path class="cls-5" d="M66.61,39.5l9.32,3.59,1.93-9.41a6.78,6.78,0,0,0-3.62-7.43L57.5,19Z"/><path class="cls-5" d="M14,39.5,4.63,43.09l-1.84-9a7.37,7.37,0,0,1,4-8.08L22.8,19Z"/><g id="ears"><path class="cls-2" d="M74.59,26.32,57.2,18.19c-1.76,3.65,1.74,8.75,7.78,11.65a17,17,0,0,0,8.54,1.78,9.56,9.56,0,0,0-1.21,3c-.86,4,.79,7.75,3.68,8.37l2.06-9.66A6.33,6.33,0,0,0,74.59,26.32Z"/><path class="cls-2" d="M23.39,18,5.77,26.48a6.42,6.42,0,0,0-3.49,7.15l2,9.54c2.9-.63,4.55-4.38,3.69-8.38a9.59,9.59,0,0,0-1.22-3,17.31,17.31,0,0,0,8.69-1.83C21.6,27,25.14,21.64,23.39,18Z"/></g><path class="cls-6" d="M43.45,72.68a9.25,9.25,0,0,0-18.3,1.91c0,3.35-.71,9.42,4.47,14.09,1.25,1.12,1.82,2.59,1.89,6.3,0,2.07,0,4.78,0,4.78H50.18V90.41a7.42,7.42,0,0,0-2.63-5.47C42.41,80.35,43.84,74.52,43.45,72.68Z"/><path class="cls-2" d="M68.27,43.36c-.13-9.81-1.88-20.81-10-24.72-2-.95-3.8-1.42-6-2.28-2.63-1-3.62-1.74-5.49-2.58A19.27,19.27,0,0,0,38,11.94c-3.92,0-6.81,1.26-10,3-1.68.91-2.89,2.32-4.61,3.07a15.06,15.06,0,0,0-2.48,1.34c-6.22,4.22-9.55,11.5-10.62,19.42-.11.85-.25,1.52-.37,2.54a16.29,16.29,0,0,0-.25,3V54.41A12.43,12.43,0,0,0,20.31,66.65a27.73,27.73,0,0,0,16.94,7.1c8.07.5,14.29-2.75,21-7.16,5.19-3.09,10.1-6.15,10.1-12.18V44.25A8.65,8.65,0,0,0,68.27,43.36Z"/><path class="cls-3" d="M45.09,70.88a27.68,27.68,0,0,1-16.93-7.1A12.43,12.43,0,0,1,17.52,51.54V41.38a16.21,16.21,0,0,1,.25-3c.13-1.08.25-1.69.37-2.54,1.06-7.92,4.4-15.2,10.61-19.41a15.2,15.2,0,0,1,2.49-1.35c1.71-.75,2.92-2.16,4.61-3.06l0,0A22.23,22.23,0,0,0,28,14.83c-1.68.9-2.89,2.32-4.61,3.06a15.1,15.1,0,0,0-2.48,1.35c-6.22,4.22-9.55,11.5-10.62,19.41-.11.85-.27,1.69-.37,2.63a15.46,15.46,0,0,0-.25,2.88V54.32A12.43,12.43,0,0,0,20.31,66.56a27.8,27.8,0,0,0,16.94,7.11,27.23,27.23,0,0,0,14.34-3.24A24.69,24.69,0,0,1,45.09,70.88Z"/><path class="cls-7" d="M47.09,47.28A8.11,8.11,0,0,0,39,55.39H28.45c0-.17.05-.33.05-.5a8.11,8.11,0,1,0-16.22,0c0,.22,0,.43.06.65.11,8.89,9.66,16.08,21.43,16.08S55.2,64.35,55.2,55.39A8.11,8.11,0,0,0,47.09,47.28Z"/><path class="cls-8" d="M39.11,54.34a7.34,7.34,0,1,1-14.67,0c0-4.07,3-3.85,7.1-3.85S39.11,50.27,39.11,54.34Z"/><g id="r_eye" data-name="r eye"><circle class="cls-3" cx="47.81" cy="37.34" r="6.14"/><circle class="cls-3" cx="22.03" cy="37.34" r="6.14"/><circle cx="48.44" cy="36.76" r="3.67"/><path class="cls-9" d="M52.11,36.76a3.67,3.67,0,0,1-7.34,0"/><circle class="cls-10" cx="49.31" cy="35.77" r="1.05"/><circle class="cls-10" cx="47.67" cy="34.88" r="0.52"/><polyline class="cls-7" points="43.09 33.37 44.86 30.13 50.27 33.15"/><circle class="cls-7" cx="44.04" cy="31.8" r="1.83"/></g><g id="l_eye" data-name="l eye"><circle cx="22.65" cy="36.42" r="3.67"/><path class="cls-9" d="M26.32,36.42a3.67,3.67,0,0,1-7.34,0"/><circle class="cls-10" cx="23.52" cy="35.42" r="1.05"/><circle class="cls-10" cx="21.87" cy="34.63" r="0.52"/><polyline class="cls-7" points="28.43 33.25 26.64 30.02 21.25 33.08"/><circle class="cls-7" cx="27.22" cy="31.67" r="1.83"/></g><g id="head_white" data-name="head white"><polygon class="cls-6" points="34.94 13.42 34.91 30.96 41.05 14.55 34.94 13.42"/><path class="cls-6" d="M34.94,13.43a3.11,3.11,0,1,1,6.11,1.11"/></g><path class="cls-11" d="M40.31,69.49c-11.77,0-21.31-7.18-21.42-16.07,0-.22-.07-.43-.07-.66a8.08,8.08,0,0,1,2.56-5.89,8.1,8.1,0,0,0-1-.1,8.12,8.12,0,0,0-8.11,8.12c0,.22,0,.43.06.65.11,8.89,9.66,16.08,21.43,16.08A26.42,26.42,0,0,0,45.37,69,27.75,27.75,0,0,1,40.31,69.49Z"/></g></svg>