<svg xmlns="http://www.w3.org/2000/svg" viewBox="0 0 100 100"><defs><style>.cls-1{fill:#adb9c6;}.cls-2{fill:#deffa9;}.cls-3{fill:#abefd0;}.cls-4,.cls-9{fill:#262626;}.cls-5{fill:#4d4d4d;}.cls-6{fill:#fff;}.cls-7{fill:#ffc5dd;}.cls-8{fill:#fcd7ff;}.cls-9{opacity:0.1;}.cls-10{fill:#f2f2f2;}.cls-11{fill:#e6e6e6;}</style></defs><title>GABE</title><g id="GABE"><g id="gabe2"><rect class="cls-1" width="100" height="99.95" rx="4" ry="4"/><g id="ears"><path class="cls-2" d="M60.54,23.8l-4.82,9.66a1.67,1.67,0,0,0,0,1.48l4.82,9.71a1.67,1.67,0,0,0,3,0L68.34,35a1.61,1.61,0,0,0,0-1.48L63.53,23.8A1.67,1.67,0,0,0,60.54,23.8Z"/><path class="cls-3" d="M81.14,24.3,76.32,34a1.7,1.7,0,0,0,0,1.49l4.82,9.71a1.67,1.67,0,0,0,3,0l4.81-9.66a1.61,1.61,0,0,0,0-1.48L84.13,24.3A1.67,1.67,0,0,0,81.14,24.3Z"/></g><path class="cls-3" d="M49.7,95.33a26.92,26.92,0,1,1,46.67-.1l-2.91,3.2s-5.15,1.88-6,1.52S76,99.86,76,99.86"/><path class="cls-3" d="M95.1,60l-15,23a10.66,10.66,0,0,1-15,0L50,60C46.91,54,45.86,49.14,50,45L65,30a10.68,10.68,0,0,1,15,0l15,15C99.24,49.14,98.58,54.79,95.1,60Z"/><rect class="cls-3" x="56.27" y="37.24" width="31.89" height="31.89" rx="4" ry="4" transform="translate(-16.46 66.62) rotate(-44.99)"/><g id="eyes"><circle class="cls-4" cx="80.63" cy="50.39" r="2.66"/><path class="cls-5" d="M83.3,50.39a2.67,2.67,0,0,1-5.33,0"/><circle class="cls-6" cx="81.27" cy="49.67" r="0.76"/><circle class="cls-6" cx="80.07" cy="49.09" r="0.38"/><path class="cls-4" d="M62.43,51.64a2.62,2.62,0,0,1-.37-1.36,2.67,2.67,0,0,1,5.33,0A2.71,2.71,0,0,1,67,51.64"/><path class="cls-5" d="M67,51.63a2.7,2.7,0,0,0,.36-1.35H62.06a3,3,0,0,0,.37,1.37"/><circle class="cls-6" cx="65.36" cy="49.56" r="0.76"/><circle class="cls-6" cx="64.16" cy="48.99" r="0.38"/></g><rect class="cls-4" x="68.88" y="52.96" width="7.97" height="5.31" rx="0.85" ry="0.85"/><path class="cls-4" d="M77.2,61a5.48,5.48,0,0,1-4.54,2.66A5.31,5.31,0,0,1,68,61"/><g id="ears-2" data-name="ears"><path class="cls-7" d="M14.83,22.24,10,31.89a1.7,1.7,0,0,0,0,1.49l4.82,9.71a1.67,1.67,0,0,0,3,0l4.81-9.66a1.67,1.67,0,0,0,0-1.48l-4.82-9.71A1.67,1.67,0,0,0,14.83,22.24Z"/><path class="cls-8" d="M35.43,22.74l-4.81,9.65a1.7,1.7,0,0,0,0,1.49l4.82,9.7a1.67,1.67,0,0,0,3,0l4.81-9.66a1.7,1.7,0,0,0,0-1.49l-4.82-9.7A1.67,1.67,0,0,0,35.43,22.74Z"/></g><path class="cls-7" d="M50.67,93.67A26.92,26.92,0,1,0,4,93.77L5.83,98s3.77,1.95,5.6,1.82,13.15,0,13.15,0"/><path class="cls-7" d="M49.4,58.47l-15,23a10.66,10.66,0,0,1-15,0l-15-23c-3.08-6.07-4.13-10.9,0-15l15-15a10.68,10.68,0,0,1,15,0l15,15C53.54,47.57,52.87,53.23,49.4,58.47Z"/><rect class="cls-7" x="10.57" y="35.67" width="31.89" height="31.89" rx="4" ry="4" transform="translate(-28.73 33.86) rotate(-44.99)"/><g id="eyes-2" data-name="eyes"><circle class="cls-4" cx="34.93" cy="48.83" r="2.66"/><path class="cls-5" d="M37.6,48.83a2.67,2.67,0,0,1-5.33,0"/><circle class="cls-6" cx="35.56" cy="48.1" r="0.76"/><circle class="cls-6" cx="34.37" cy="47.53" r="0.38"/><path class="cls-4" d="M16.73,50.07a2.55,2.55,0,0,1-.37-1.35,2.67,2.67,0,0,1,5.33,0,2.71,2.71,0,0,1-.37,1.36"/><path class="cls-5" d="M21.32,50.06a2.64,2.64,0,0,0,.37-1.34H16.36a3,3,0,0,0,.37,1.37"/><circle class="cls-6" cx="19.65" cy="48" r="0.76"/><circle class="cls-6" cx="18.46" cy="47.42" r="0.38"/></g><rect class="cls-4" x="23.18" y="51.4" width="7.97" height="5.31" rx="0.85" ry="0.85"/><path class="cls-4" d="M31.49,59.45A5.47,5.47,0,0,1,27,62.11a5.32,5.32,0,0,1-4.65-2.73"/><path class="cls-9" d="M64.36,62.53l2.75-4.21c4.08-6.16,4.86-12.81,0-17.67L58.55,32.1l1.32-2.63a2,2,0,0,0,0-1.74L54.2,16.31a2,2,0,0,0-3.51,0L48,21.79a12.48,12.48,0,0,0-14.9.13L30,15.73a2,2,0,0,0-3.51,0L20.81,27.08a2,2,0,0,0,0,1.75l1.69,3.4-8.42,8.42c-4.87,4.86-3.63,10.53,0,17.67l3.19,4.89a31.56,31.56,0,0,0-3.54,36.61l54.86-.12a31.55,31.55,0,0,0-4.23-37.17Z"/><path class="cls-9" d="M83.11,62.53l2.75-4.21c4.08-6.16,4.86-12.81,0-17.67L77.3,32.1l1.32-2.63a2,2,0,0,0,0-1.74L73,16.31a2,2,0,0,0-3.51,0l-2.73,5.48a12.48,12.48,0,0,0-14.9.13l-3.08-6.19a2,2,0,0,0-3.51,0L39.56,27.08a2,2,0,0,0,0,1.75l1.69,3.4-8.42,8.42c-4.87,4.86-3.63,10.53,0,17.67L36,63.21a31.56,31.56,0,0,0-3.54,36.61l54.86-.12a31.55,31.55,0,0,0-4.23-37.17Z"/><g id="ears-3" data-name="ears"><path class="cls-10" d="M35.84,15.73,30.19,27.08a1.93,1.93,0,0,0,0,1.75l5.66,11.41a2,2,0,0,0,3.51,0L45,28.89a1.93,1.93,0,0,0,0-1.75L39.36,15.73A2,2,0,0,0,35.84,15.73Z"/><path class="cls-10" d="M60.06,16.31,54.41,27.67a1.94,1.94,0,0,0,0,1.74l5.67,11.41a2,2,0,0,0,3.51,0l5.66-11.36a1.94,1.94,0,0,0,0-1.74L63.58,16.31A2,2,0,0,0,60.06,16.31Z"/></g><path class="cls-11" d="M23.1,99.82A31.66,31.66,0,1,1,78,99.7"/><path class="cls-10" d="M76.48,58.32l-17.67,27a12.54,12.54,0,0,1-17.68,0l-17.68-27c-3.63-7.14-4.86-12.81,0-17.67L41.13,23a12.56,12.56,0,0,1,17.68,0L76.48,40.65C81.35,45.51,80.57,52.16,76.48,58.32Z"/><rect class="cls-11" x="30.83" y="31.52" width="37.49" height="37.49" rx="4" ry="4" transform="translate(-21.03 49.76) rotate(-44.99)"/><g id="eyes-3" data-name="eyes"><g id="eye"><circle class="cls-4" cx="59.47" cy="46.98" r="3.13"/><path class="cls-5" d="M62.61,47a3.14,3.14,0,1,1-6.27,0"/><circle class="cls-6" cx="60.22" cy="46.14" r="0.89"/><circle class="cls-6" cx="58.81" cy="45.46" r="0.45"/></g><path class="cls-4" d="M38.07,48.45a3.05,3.05,0,0,1-.43-1.59,3.13,3.13,0,1,1,6.26,0,3.22,3.22,0,0,1-.43,1.6"/><path class="cls-5" d="M43.47,48.44a3,3,0,0,0,.43-1.58H37.64a3.37,3.37,0,0,0,.44,1.61"/><circle class="cls-6" cx="41.51" cy="46.01" r="0.89"/><circle class="cls-6" cx="40.11" cy="45.34" r="0.45"/></g><rect class="cls-4" x="45.65" y="50.01" width="9.37" height="6.25" rx="1" ry="1"/><path class="cls-4" d="M55.43,59.48A6.44,6.44,0,0,1,50.1,62.6a6.25,6.25,0,0,1-5.46-3.2"/></g></g></svg>