<svg xmlns="http://www.w3.org/2000/svg" viewBox="0 0 100 100"><defs><style>.cls-1{fill:#8e8693;}.cls-2{fill:#d8d6d7;}.cls-3{fill:#e5ddb7;}.cls-4{fill:#d6b07f;}.cls-5{fill:#e0d0bd;}.cls-6{fill:#352d26;}.cls-7{fill:#262626;}.cls-8{fill:#4d4d4d;}.cls-9{fill:#fff;}</style></defs><title>Artboard 12</title><g id="GOODNIGHT_PUPPER" data-name="GOODNIGHT PUPPER"><path class="cls-1" d="M95.65,99.76H4a4,4,0,0,1-4-4V4A4,4,0,0,1,4,0H95.65a4,4,0,0,1,4,4V95.76A4,4,0,0,1,95.65,99.76Z"/><path class="cls-2" d="M99.65,87.36c0,14.07,1.5,12.64-12.46,12.47H12.46C-1.18,99.76,0,101.21,0,87.36"/><path class="cls-3" d="M81.09,54.16A27.64,27.64,0,0,1,53.47,81.82c-15.26,0-17.88-11.44-27.63-27.66a27.63,27.63,0,1,1,55.25,0Z"/><path class="cls-3" d="M25.84,87.36h0A16.45,16.45,0,0,1,42.24,71H64.7A16.44,16.44,0,0,1,81.09,87.36H25.84Z"/><ellipse class="cls-4" cx="47.73" cy="54.36" rx="21.89" ry="21.91"/><rect class="cls-5" x="36.69" y="56.69" width="21.68" height="14" rx="1.26" ry="1.26"/><ellipse class="cls-5" cx="56.28" cy="56.61" rx="8.63" ry="8.64"/><ellipse class="cls-5" cx="39.67" cy="56.61" rx="8.63" ry="8.64"/><ellipse class="cls-6" cx="46.68" cy="64.33" rx="4.68" ry="4.69"/><g id="eyes"><path class="cls-7" d="M54,57.85a3.44,3.44,0,0,1,.11-3.65h5.67a3.37,3.37,0,0,1,.59,1.91,3.41,3.41,0,0,1-.48,1.74"/><path class="cls-8" d="M59.88,57.84a3.4,3.4,0,0,0,.47-1.73H53.51A3.76,3.76,0,0,0,54,57.87"/><circle class="cls-9" cx="58.72" cy="56.16" r="0.98"/><circle class="cls-9" cx="56.69" cy="56.03" r="0.49"/><g id="eyes-2" data-name="eyes"><path class="cls-7" d="M34.6,57.86a3.43,3.43,0,0,1-.47-1.74,3.37,3.37,0,0,1,.58-1.91h5.67a3.46,3.46,0,0,1,.11,3.66"/><path class="cls-8" d="M40.5,57.84A3.43,3.43,0,0,0,41,56.12H34.13a3.72,3.72,0,0,0,.48,1.75"/><circle class="cls-9" cx="39.33" cy="56.17" r="0.98"/><circle class="cls-9" cx="37.31" cy="56.03" r="0.49"/></g></g><path class="cls-3" d="M23.22,92.26,20.07,88.7a3.06,3.06,0,0,1,.26-4.31L32.59,73.5a3.06,3.06,0,0,1,4.3.26L40,77.32a3,3,0,0,1-.26,4.3L27.52,92.51A3,3,0,0,1,23.22,92.26Z"/><path class="cls-3" d="M62.78,94.27l-3.15-3.55a3,3,0,0,1,.1-4.17L71.14,76.42a3,3,0,0,1,4.14.4l3.15,3.56a3,3,0,0,1-.1,4.16L66.93,94.67A3,3,0,0,1,62.78,94.27Z"/><ellipse class="cls-4" cx="24.53" cy="86.5" rx="4.68" ry="4.69"/><ellipse class="cls-4" cx="63.29" cy="92.05" rx="4.68" ry="4.69"/><polygon class="cls-4" points="31.97 67.61 31.97 73.16 37.51 73.16 31.97 67.61"/><polygon class="cls-4" points="28.07 62.07 28.07 67.61 33.6 67.61 28.07 62.07"/><polygon class="cls-4" points="34.43 69.52 34.43 75.06 39.97 75.06 34.43 69.52"/><polygon class="cls-4" points="36.56 70.95 36.56 76.49 42.1 76.49 36.56 70.95"/><polygon class="cls-4" points="30.06 64.84 30.06 70.38 35.59 70.38 30.06 64.84"/><polygon class="cls-4" points="25.71 59.3 25.71 64.84 31.25 64.84 25.71 59.3"/><rect class="cls-4" x="25.71" y="54.36" width="2.77" height="6.06"/><rect class="cls-4" x="41.96" y="72.03" width="2.77" height="6.06" transform="translate(-31.81 118.25) rotate(-89.88)"/></g></svg>