<svg xmlns="http://www.w3.org/2000/svg" viewBox="0 0 100 100"><defs><style>.cls-1{fill:#b26554;}.cls-2{fill:#e0d0bd;}.cls-3,.cls-7{fill:#352012;}.cls-3{stroke:#352012;stroke-linecap:round;}.cls-3,.cls-4{stroke-linejoin:round;}.cls-4{fill:#ddd0bc;stroke:#ddd0bc;}.cls-5{fill:#ede6d9;}.cls-6{fill:#e5ded3;}.cls-8{fill:#28150b;}.cls-9{fill:#f4f2ef;}.cls-10{fill:#a8dce5;}.cls-11{fill:#ffc2db;}.cls-12{fill:#ffc0fb;}.cls-13{fill:#fff;}</style></defs><title>Artboard 15</title><g id="grumpy_cat" data-name="grumpy cat"><path class="cls-1" d="M95.92,100H4.08a4,4,0,0,1-4-4V4.14a4,4,0,0,1,4-4H95.92a4,4,0,0,1,4,4V96A4,4,0,0,1,95.92,100Z"/><path class="cls-2" d="M85.33,100c3.75-66.77-9.24-76.11-37.89-76.11-19.56,0-38.66,9-35.73,76.11,25.76-.76,16.25,0,35.81,0Z"/><path class="cls-3" d="M82.75,20.82c5.36,6.44.49,19.3-10.89,28.71s-25,11.81-30.32,5.36Z"/><path class="cls-3" d="M19.55,19.91C13.47,25.69,16.82,39,27,49.67s23.42,14.61,29.5,8.83Z"/><path class="cls-4" d="M20.63,27.23c-2.17,2.06,0,7.87,4.91,13s10.6,7.56,12.77,5.49Z"/><path class="cls-4" d="M79.61,28.17c1.91,2.3-.94,7.82-6.38,12.32s-11.41,6.27-13.33,4Z"/><path class="cls-5" d="M80.4,49.85C80.4,65.41,66.62,78,49.62,78S18.85,65.41,18.85,49.85,32.63,26.37,49.62,26.37,80.4,34.28,80.4,49.85Z"/><path class="cls-6" d="M61.54,66.58c0,6-6.62,7.48-14.78,7.48S32,72.58,32,66.58,38.6,55.73,46.76,55.73,61.54,60.59,61.54,66.58Z"/><path class="cls-7" d="M46.76,49.2a11.8,11.8,0,0,1-23.6,0c0-6.5,5.28-7.83,11.8-7.83S46.76,42.7,46.76,49.2Z"/><path class="cls-7" d="M76.09,49.05a11.8,11.8,0,0,1-23.6,0c0-6.49,5.28-7.82,11.8-7.82S76.09,42.56,76.09,49.05Z"/><path class="cls-8" d="M73.07,47.63c0,5.35-4,9.69-9,9.69s-9-4.34-9-9.69,4-3.22,9-3.22S73.07,42.27,73.07,47.63Z"/><path class="cls-8" d="M43.75,47.63c0,5.35-4,9.69-9,9.69s-9-4.34-9-9.69,4-3.22,9-3.22S43.75,42.27,43.75,47.63Z"/><path class="cls-9" d="M64.4,63.17c0,6-6.61,7.47-14.78,7.47s-14.78-1.48-14.78-7.47,6.62-10.86,14.78-10.86S64.4,57.17,64.4,63.17Z"/><path class="cls-10" d="M70.19,48.9a5.91,5.91,0,0,1-11.81,0c0-3.25,2.64-1.95,5.9-1.95S70.19,45.65,70.19,48.9Z"/><path class="cls-11" d="M49.53,59.79c.14-2,1.45-3.36,3.94-3.6.87-.09.6-2.88,0-3.49-1.36-1.33-6.07-1.46-7.61,0-.62.61-1,2.81-.09,3.34C46.45,56.43,49.25,56.32,49.53,59.79Z"/><path class="cls-12" d="M50.8,63.9s0,0,0,.05h0A.09.09,0,0,0,50.8,63.9Z"/><ellipse class="cls-13" cx="62.03" cy="48.92" rx="2.06" ry="2.05"/><ellipse class="cls-13" cx="65.85" cy="50.62" rx="1.25" ry="1.25"/><path class="cls-10" d="M40.87,48.9a5.91,5.91,0,0,1-11.82,0C29.05,45.65,31.7,47,35,47S40.87,45.65,40.87,48.9Z"/><ellipse class="cls-13" cx="32.7" cy="48.92" rx="2.06" ry="2.05"/><ellipse class="cls-13" cx="36.52" cy="50.62" rx="1.25" ry="1.25"/><path class="cls-11" d="M40.24,66.62s6.61-5.37,9.29-5.34,8.85,5.34,8.85,5.34S52,63,49.62,63,40.24,66.62,40.24,66.62Z"/></g></svg>