<svg xmlns="http://www.w3.org/2000/svg" viewBox="0 0 100 100"><defs><style>.cls-1{fill:#9b8987;}.cls-2{fill:#a4bedd;}.cls-3,.cls-4{fill:#d6b07f;}.cls-4{stroke:#d6b07f;stroke-linecap:round;}.cls-4,.cls-5{stroke-linejoin:round;}.cls-10,.cls-5{fill:#e0d0bd;}.cls-5{stroke:#e0d0bd;}.cls-6{opacity:0.08;}.cls-7{fill:#d6b896;}.cls-8{fill:#b1c9e0;}.cls-9{opacity:0.06;}.cls-11{fill:#d6c29a;}.cls-12{fill:#e8ddca;}.cls-13{fill:#c6ae87;}.cls-14{fill:#cba;}.cls-15{fill:#333;}.cls-16{fill:#f2f2f2;}</style></defs><title>Artboard 14</title><g id="keyboard_cat" data-name="keyboard cat"><path class="cls-1" d="M95.85,99.89H4a4,4,0,0,1-4-4V4A4,4,0,0,1,4,0H95.85a4,4,0,0,1,4,4V95.89A4,4,0,0,1,95.85,99.89Z"/><path class="cls-2" d="M100,89.48c0-17.24-13.28-31.21-29.67-31.21s-28,13.63-28,30.87A32.37,32.37,0,0,0,45,100c11.94-.08,54.9-.11,54.9-.11V91.44h-.12A8.71,8.71,0,0,0,100,89.48Z"/><rect class="cls-3" x="-0.02" y="71.87" width="43.68" height="12.88" rx="2.06" ry="2.06" transform="translate(-21.23 9.35) rotate(-16.41)"/><path class="cls-2" d="M28.68,63.51H54.89a2.86,2.86,0,0,1,2.86,2.86V78.48a2.86,2.86,0,0,1-2.86,2.86H28.68a2.06,2.06,0,0,1-2.06-2.06V65.57a2.06,2.06,0,0,1,2.06-2.06Z" transform="translate(-19.42 15.59) rotate(-17.09)"/><path class="cls-4" d="M39.62,8.32C36,10.77,36.48,18,40.79,24.43s10.77,9.68,14.43,7.23Z"/><path class="cls-5" d="M40.4,13.31c-1.46,1-1.15,4,.7,6.79s4.54,4.21,6,3.23Z"/><path class="cls-4" d="M94.89,12.54C97.8,16,95.16,23,89,28.16s-13.52,6.42-16.43,2.92Z"/><path class="cls-5" d="M93.19,16.53c1,1.26-.5,4.26-3.45,6.71s-6.19,3.41-7.23,2.16Z"/><path class="cls-3" d="M93.21,51.49C89.87,65.11,74.12,73,58,69S31.58,50.82,34.92,37.21,53.75,18.27,70.1,19.7C86.61,21.14,96.54,37.88,93.21,51.49Z"/><path class="cls-6" d="M91.45,79.7a8.94,8.94,0,0,0-10.94-6.26L65.28,77.59a6.44,6.44,0,0,0-4.44,4.34L44.55,86.36c-2.91,3.91-1,11.32.6,13.56L65,94.13a6.4,6.4,0,0,0,4.92.66L85.2,90.64A8.94,8.94,0,0,0,91.45,79.7Z"/><rect class="cls-7" x="20.2" y="80.76" width="52.29" height="12.88" rx="2.06" ry="2.06" transform="translate(-21.51 15.46) rotate(-15.42)"/><path class="cls-8" d="M59.28,71.48H85.49a2.86,2.86,0,0,1,2.86,2.86V86.45a2.86,2.86,0,0,1-2.86,2.86H59.28a2.06,2.06,0,0,1-2.06-2.06V73.54a2.06,2.06,0,0,1,2.06-2.06Z" transform="matrix(0.96, -0.26, 0.26, 0.96, -18.57, 21.96)"/><path class="cls-7" d="M79.05,61.68,91.22,54a7.24,7.24,0,0,0,2.17-9.43L86.2,32.89C80.81,24.35,73.6,18.57,63.56,18.8,55.81,19,50.21,20,46.84,22.5c-2,1.48-13.09,10.09-13.09,10.09a7.24,7.24,0,0,0-1.37,9.72l8,11.33c1.91,2.73,5.33,7.55,5.33,7.55l0,0A23.39,23.39,0,0,0,60,67.84a27.58,27.58,0,0,0,9.91-1.33C72.29,65.46,77,62.94,79.05,61.68Z"/><path class="cls-9" d="M62.64,45.72a7.26,7.26,0,0,0-.49.61,1,1,0,0,1-.08-.14C62.26,46,62.46,45.88,62.64,45.72Z"/><path class="cls-10" d="M81.75,37.28a11.1,11.1,0,0,0-19.1-7.73A11.1,11.1,0,1,0,46.73,44.43a7.29,7.29,0,0,0-.62,3A7.39,7.39,0,0,0,59.64,51.5a7.39,7.39,0,0,0,14.1-3.09c0-.17,0-.32,0-.48A11.11,11.11,0,0,0,81.75,37.28ZM60.69,43.69c-.16.2-.34.38-.49.6,0,0-.05-.09-.07-.14C60.32,44,60.51,43.85,60.69,43.69Z"/><path class="cls-11" d="M59.82,49.15c.35-1.89,1.77-3.11,4.21-3.08.85,0,.9-2.72.36-3.39-1.16-1.44-5.72-2.08-7.37-.78-.67.52-1.25,2.63-.46,3.24C57.2,45.55,59.93,45.75,59.82,49.15Z"/><path class="cls-12" d="M60.45,46v0h0S60.45,46,60.45,46Z"/><path class="cls-13" d="M64.56,18l-2.32,8.37,1.34-8.58a.5.5,0,1,1,1,.16A.43.43,0,0,0,64.56,18Z"/><path class="cls-13" d="M91.53,59.11l-7.21-5.69,7.78,4.87a.49.49,0,0,1,.16.69.51.51,0,0,1-.69.16Z"/><path class="cls-13" d="M93.9,52.33l-7.41-1.9,7.6.92a.49.49,0,0,1,.43.56.5.5,0,0,1-.55.44Z"/><path class="cls-13" d="M86.49,64.81,81.74,57l5.57,7.3a.5.5,0,1,1-.79.61Z"/><path class="cls-13" d="M36.55,54.61l4.5-1.73L37,55.5a.5.5,0,0,1-.69-.15.49.49,0,0,1,.15-.69Z"/><path class="cls-13" d="M34.56,48.78l5-.54-4.78,1.52a.5.5,0,0,1-.63-.33.49.49,0,0,1,.33-.63Z"/><path class="cls-13" d="M40.1,59l2.8-3.34-2,3.89a.49.49,0,0,1-.67.22.51.51,0,0,1-.23-.68Z"/><path class="cls-13" d="M71.11,19.71,67,25l3.24-5.82a.5.5,0,0,1,.88.49Z"/><path class="cls-13" d="M56.71,18.64l.86,6.61-1.84-6.41a.5.5,0,0,1,1-.27S56.71,18.62,56.71,18.64Z"/><ellipse class="cls-14" cx="52.03" cy="33.51" rx="3.31" ry="7.15" transform="matrix(0.5, -0.87, 0.87, 0.5, -3.01, 61.8)"/><ellipse class="cls-14" cx="72.43" cy="35.14" rx="7.14" ry="3.31" transform="translate(-5.7 15.74) rotate(-11.94)"/><path class="cls-15" d="M76.33,34.24c0,.18,0,.46-.41.69a11.42,11.42,0,0,1-3.54,1.37,9.24,9.24,0,0,1-4.64-.24,10.56,10.56,0,0,1,4.13-2.16,14.83,14.83,0,0,1,3.64-.1C76,33.85,76.29,34,76.33,34.24Z"/><path class="cls-15" d="M48.82,31.43a.69.69,0,0,0,.19.78,11.35,11.35,0,0,0,3,2.36,9.17,9.17,0,0,0,4.49,1.17,10.62,10.62,0,0,0-3.29-3.3,14.71,14.71,0,0,0-3.44-1.18C49.27,31.16,48.92,31.25,48.82,31.43Z"/><circle class="cls-16" cx="70.13" cy="35.52" r="0.75"/><circle class="cls-16" cx="50.65" cy="32.69" r="0.75"/><circle class="cls-16" cx="71.52" cy="35.88" r="0.38"/><circle class="cls-16" cx="71.52" cy="35.88" r="0.38"/><circle class="cls-16" cx="51.85" cy="33.4" r="0.38"/></g></svg>