<svg xmlns="http://www.w3.org/2000/svg" xmlns:xlink="http://www.w3.org/1999/xlink" viewBox="0 0 100 100"><defs><style>.cls-1,.cls-10{fill:none;}.cls-2{clip-path:url(#clip-path);}.cls-3{fill:#fff;}.cls-4{fill:#f4d89a;}.cls-5{fill:#aaa385;}.cls-6{fill:#9b926d;}.cls-7{fill:#918967;}.cls-8{fill:#752903;}.cls-9{fill:#bc4517;}.cls-10{stroke:#333;stroke-linecap:round;stroke-miterlimit:10;}.cls-11{fill:#77725c;}.cls-12{fill:#a59e81;}.cls-13{fill:#6b6755;}.cls-14{fill:#f4cdc3;}</style><clipPath id="clip-path"><rect class="cls-1" x="0.17" y="-0.02" width="99.86" height="99.86" rx="4" ry="4"/></clipPath></defs><title>MOTH</title><g id="Layer_8" data-name="Layer 8"><g class="cls-2"><circle class="cls-3" cx="49.05" cy="42.23" r="1.05"/><path class="cls-3" d="M47.93,41.31a.52.52,0,1,1-1,.06"/><rect class="cls-4" x="0.14" width="99.86" height="99.86" rx="4" ry="4"/><g id="wing"><path class="cls-5" d="M79.46,92.66C60.91,75.77,51.12,51.25,55.79,46.12s30.85,5.09,49.39,22"/><circle class="cls-5" cx="93.41" cy="81.8" r="17.92"/></g><g id="wing-2" data-name="wing"><path class="cls-5" d="M17.76,96.87c12.67-21.64,14.71-48,8.72-51.48s-27.93,14-40.6,35.7"/><circle class="cls-5" cx="1.2" cy="90.67" r="17.92"/></g><path class="cls-6" d="M67.17,75.66a25.84,25.84,0,0,0,.42-4.52,25.49,25.49,0,0,0-2.36-10.69,21.83,21.83,0,0,0,1.57-8.09h0A22.13,22.13,0,0,0,50.69,31.15a25.56,25.56,0,0,0-33.25,1.39A22.12,22.12,0,0,0,5,52.36H5A22.09,22.09,0,0,0,16.32,71.61,25.61,25.61,0,0,0,23.56,89a25.64,25.64,0,1,0,50.87,4.52A25.58,25.58,0,0,0,67.17,75.66Z"/><ellipse class="cls-7" cx="23.39" cy="48.33" rx="6.68" ry="6.44"/><ellipse class="cls-7" cx="42.09" cy="48.46" rx="6.68" ry="6.44"/><circle class="cls-8" cx="23.39" cy="48.33" r="4.52"/><circle class="cls-9" cx="25.72" cy="48.4" r="2.26"/><circle class="cls-8" cx="41.91" cy="48.49" r="4.52"/><circle class="cls-9" cx="39.58" cy="48.56" r="2.26"/><rect class="cls-5" x="27.93" y="43.53" width="9.48" height="18.64" rx="1.52" ry="1.52"/><path class="cls-7" d="M30.29,92.92a25.93,25.93,0,0,1,.42-4.52A25.5,25.5,0,0,1,23.47,71,22.09,22.09,0,0,1,12.13,51.76h0A22.09,22.09,0,0,1,24.59,32a25.61,25.61,0,0,1,11.78-6.23c-.45,0-.9,0-1.36,0a25.56,25.56,0,0,0-17.44,6.87A22.12,22.12,0,0,0,5.11,52.36h0A22.1,22.1,0,0,0,16.46,71.61,25.52,25.52,0,0,0,23.7,89a24.91,24.91,0,0,0-.43,4.52,25.59,25.59,0,0,0,31.36,25A25.62,25.62,0,0,1,30.29,92.92Z"/><path class="cls-10" d="M37.48,37.53S40.19,10.06,62.05,7"/><path class="cls-10" d="M24.71,37.92S22,10.45.14,7.35"/><path class="cls-11" d="M18,56.05a3.1,3.1,0,0,0-4.37.19L5.16,65.52a3.11,3.11,0,0,0,.19,4.37c.05,0,.12.06.17.1a3.09,3.09,0,0,0-3.13,2.49L.18,84.86a3.09,3.09,0,0,0,2.27,3.5,3.09,3.09,0,0,0-3.54,2.5L-3.3,103.24a3.11,3.11,0,0,0,2.5,3.59,3.1,3.1,0,0,0,3.59-2.5L5,92a3.09,3.09,0,0,0-2.27-3.5A3.08,3.08,0,0,0,6.27,86L8.49,73.57a3.08,3.08,0,0,0-1.13-2.91,3,3,0,0,0,2.36-1l8.49-9.27A3.1,3.1,0,0,0,18,56.05Z"/><path class="cls-11" d="M96.28,103.3l-8.89-8.89a3.11,3.11,0,0,0-3.24-.7,3.08,3.08,0,0,0-.77-2.89l-8.89-8.89a3,3,0,0,0-2.89-.76,3.09,3.09,0,0,0,.23-2.61l-4.5-11.74A3.08,3.08,0,0,0,63.72,65a2.09,2.09,0,0,0,.29-.23,3.11,3.11,0,0,0-.38-4.36L54,52.3A3.09,3.09,0,1,0,50,57l9.63,8.08a3,3,0,0,0,2.63.61A3.1,3.1,0,0,0,61.55,69l4.5,11.74a3.07,3.07,0,0,0,3.6,1.85,3.06,3.06,0,0,0,.46,3.68L79,95.2a3.09,3.09,0,0,0,3.23.7A3.07,3.07,0,0,0,83,98.79l8.89,8.89a3.1,3.1,0,1,0,4.38-4.38Z"/><path class="cls-12" d="M35.69,60.72A4.76,4.76,0,0,1,31,56V46.82a4.7,4.7,0,0,1,1.33-3.27A4.74,4.74,0,0,0,28,48.24V57.4a4.73,4.73,0,0,0,8.15,3.27A3.29,3.29,0,0,1,35.69,60.72Z"/><path class="cls-13" d="M-.25,103.89,2,91.51a3.06,3.06,0,0,1,2-2.33,3.1,3.1,0,0,0-1.26-.72,3,3,0,0,0,1.5-.18,3,3,0,0,1-1-2.77L5.45,73.13a3,3,0,0,1,2-2.33s-.08-.09-.13-.13a3.16,3.16,0,0,0,1-.18,3.1,3.1,0,0,1-.16-4.33l8.49-9.27A3,3,0,0,1,18,56.08l0,0a3.11,3.11,0,0,0-4.37.19L5.16,65.52a3.11,3.11,0,0,0,.19,4.37c.05,0,.12.06.17.11a3.07,3.07,0,0,0-3.13,2.49L.18,84.87a3.07,3.07,0,0,0,2.27,3.49,3.11,3.11,0,0,0-3.54,2.51L-3.3,103.24a3.1,3.1,0,0,0,2.5,3.59,3,3,0,0,0,1.54-.16A3.06,3.06,0,0,1-.25,103.89Z"/><path class="cls-13" d="M94.87,106.52,86,97.62a3,3,0,0,1-.77-2.88A3.1,3.1,0,0,1,82,94l-8.89-8.89a3.07,3.07,0,0,1-.46-3.69A3.06,3.06,0,0,1,69,79.61L64.52,67.87a3.05,3.05,0,0,1,.45-3,3.29,3.29,0,0,0-1.25,0c.09-.09.21-.13.29-.23s0-.09.07-.13A2.85,2.85,0,0,1,62.62,64L53,55.88a3.1,3.1,0,0,1-.45-4.23,3.05,3.05,0,0,0-2.89,1A3.09,3.09,0,0,0,50,57l9.63,8.08a3,3,0,0,0,2.63.6A3.1,3.1,0,0,0,61.55,69l4.5,11.75a3.05,3.05,0,0,0,3.6,1.84,3.07,3.07,0,0,0,.46,3.69L79,95.18a3.09,3.09,0,0,0,3.23.7A3.08,3.08,0,0,0,83,98.77l8.89,8.89a3.11,3.11,0,0,0,4.38,0c.1-.1.14-.24.23-.35A3,3,0,0,1,94.87,106.52Z"/><circle class="cls-14" cx="24.34" cy="47.19" r="1.16"/><circle class="cls-14" cx="22.57" cy="48.85" r="0.77"/><circle class="cls-14" cx="43.24" cy="47.48" r="1.16"/><circle class="cls-14" cx="41.46" cy="49.14" r="0.77"/></g></g></svg>