<svg xmlns="http://www.w3.org/2000/svg" xmlns:xlink="http://www.w3.org/1999/xlink" viewBox="0 0 100 100"><defs><style>.cls-1,.cls-18{fill:none;}.cls-2{clip-path:url(#clip-path);}.cls-3{fill:#eaddcc;}.cls-4{fill:#f7efe2;}.cls-5,.cls-7{fill:#22180f;}.cls-10,.cls-5{opacity:0.1;}.cls-6{fill:#fff8ee;}.cls-8{fill:#b78a24;}.cls-9{fill:#e5d9c6;}.cls-11{fill:#ece5d8;}.cls-12{fill:#b16554;}.cls-13{fill:#211a0f;}.cls-14{fill:#fff;}.cls-15{fill:#9dcbaf;}.cls-16{fill:#5b362f;}.cls-17{fill:#bc9c5b;}.cls-18{stroke:#aa7d22;stroke-linecap:round;stroke-miterlimit:10;stroke-width:3px;}.cls-19{fill:#e8d6cd;}</style><clipPath id="clip-path"><path class="cls-1" d="M96.14,99.81H4.29a4,4,0,0,1-4-4V3.92a4,4,0,0,1,4-4H96.14a4,4,0,0,1,4,4V95.81A4,4,0,0,1,96.14,99.81Z"/></clipPath></defs><title>Oliwia</title><g id="Layer_19" data-name="Layer 19"><g class="cls-2"><rect class="cls-3" width="67.54" height="100.08"/><rect class="cls-4" x="15.13" y="25.15" width="17.3" height="45.24" rx="1" ry="1"/><rect class="cls-4" x="40.11" y="25.15" width="17.3" height="45.24" rx="1" ry="1"/><rect class="cls-4" x="40.2" width="17.3" height="15.64" rx="1" ry="1"/><rect class="cls-4" x="14.53" y="0.12" width="17.3" height="15.64" rx="1" ry="1"/><rect class="cls-5" x="61.97" y="0.13" width="32.46" height="100"/><rect class="cls-4" x="14.53" y="79.87" width="17.3" height="20.2" rx="1" ry="1"/><rect class="cls-4" x="67.54" width="32.46" height="100"/><rect class="cls-6" x="81.89" y="7.57" width="18.11" height="92.43"/><rect class="cls-4" x="87.89" y="14.26" width="12.11" height="79.58"/><path class="cls-5" d="M52.79,40.5s-.24-3.26-6-9.58a112.27,112.27,0,0,0-9.32-9.35s-4.52-3.49-12.82.86S17.15,40,17.25,40.5s.1,3.16.89,4.64S23,56.5,23,57.49s1.48,4.79,4.94,3.73c0,0-7.78,7.2-6.13,15.42a170.71,170.71,0,0,0,8.12,26.79c4.85-.08,32.46,0,32.46,0L63,46.2s-7.41-1.33-8.35.88-1.89-6.58-1.89-6.58h0"/><path class="cls-7" d="M57.3,37.15s-.25-3.26-6-9.58A115.76,115.76,0,0,0,42,18.21s-4.52-3.48-12.82.86-7.51,17.58-7.41,18.08.1,3.16.89,4.64,4.84,11.36,4.84,12.35,1.48,4.79,4.94,3.73c0,0-7.78,7.2-6.13,15.42a169.65,169.65,0,0,0,8.12,26.79c4.85-.08,32.46,0,32.46,0l.66-57.23s-7.41-1.34-8.35.88-1.89-6.58-1.89-6.58h0"/><path class="cls-8" d="M66.73,69.74c0-.29-.49.24-1,0s.44-.34.44-.34S62.8,68.67,64,65h0a7.09,7.09,0,0,0,.39-2.28c0-1.15-1.07-2.11-.82-3.15s1.62-1.79,1.62-3.07c0-1.58-2-3.57-2-4.54-.18-4.62-1.88-5-2.65-7-.22-.57.24-1.2.24-1.85,0-4-2.88-7.21-6.44-7.21s-6.44,3.23-6.44,7.21A7.47,7.47,0,0,0,50.65,49a6,6,0,0,0-.13,1.28c0,1.15,1,2.09.85,3.15-.23,1.34-1.14,2.09-1.69,3.66-.49,1.38-.2,4,1.55,6.49.73,1,1,1.36.8,2.52a3.18,3.18,0,0,1-.5.79,2.86,2.86,0,0,0-.42.73h0s-1.15.88,0,4.18a4.76,4.76,0,0,1,0,2.8c-.52,1,1.69,4.81,3.74,5.24s-3.4-3.13-1.24-7.13c0,0,1.46-.75,2,2.92S58,78.49,58,78.49s-1.51,0-1-3.13c0,0,.65,2.27,1.83,2.32s2.6-1.08,3.89-.59-.59-1.89-2.37-1.19-1.62-3.56-.92-3,1.29,1.78.81,2.1.81,1.46,2.21-.43-.7-4.37.16-5.13,1.63.61,2.61,1a1.43,1.43,0,0,0,1.56-.1l-.78-.1S66.68,70,66.73,69.74Z"/><path class="cls-9" d="M49.58,35a2.1,2.1,0,0,1,.48-.58,2.12,2.12,0,1,1,3-.77,1,1,0,0,0-.08.81A2.61,2.61,0,0,1,53.3,37a2.12,2.12,0,1,1-3.72-2Z"/><path class="cls-8" d="M52.55,80.08a5.73,5.73,0,0,1-2.45-4,4.21,4.21,0,0,0-2.2-4.66h0c-.61-.9-1.51-1.69-1.74-2.79-.35-1.64,1.61-3.18,1.61-5.19,0-3.79-3.59-5-5-7.47-.5-.9.57-2,.57-3.15,0-4.16-3.22-5.87-6.23-7.53-3.94-2.18-12.16-4.55-7.58,7.53.72,1.91,2.33,3.6,1.76,5.24-.65,1.93-2.12,2.25-2.12,4.37a3.07,3.07,0,0,0,1.6,2.69h0s-1.67,6-.51,7.41,2,2.61,2.26,2.44c-.93-1.71-1.25-3.86-.55-2.71.95,1.55,1.19,3.06,2.52,3.82.67.38,3,1,3.36,4s.24,4.16.8,4.1-.8-4,0-5.7-.42,1.84.58,4.9,2.17,5,2.54,5.14S39,82.41,39.7,80.51s.3-3.3,1.22-2,.49,4,.55,4.65,1.41,1.78,1.65,1.78-2-1.78-1.16-3.24,1.65-.86,2.51,1,3.56,3.07,4,2.94-2.54-.79-2.24-2.87,2.94.91,4,.79-1-.61-1-1.41,1.1.86,1.59.86-.19-.24-1.17-2.57.49-.06,1.59.18S54,80.82,52.55,80.08Z"/><path class="cls-10" d="M50.18,37.23q.06-.6.06-1.23a12.43,12.43,0,0,0-24.85,0,11.91,11.91,0,0,0,2.93,7.78,2.54,2.54,0,0,0,.52,5,1.2,1.2,0,0,1,.9.37C30.31,50,30.92,51,32.26,51a2.51,2.51,0,0,0,1.68-.65A11.67,11.67,0,0,0,42,56.77c5.57.94,9.65,4.11,11.09-11.66C53.13,41.23,52,38.75,50.18,37.23Z"/><path class="cls-11" d="M50.18,33.59c0-.4.06-.81.06-1.22a12.43,12.43,0,0,0-24.85,0,12.1,12.1,0,0,0,7.44,11.09c.87,4.74,4.73,8.92,9.17,9.67,5.57.94,9.65,4.11,11.09-11.66C53.13,37.59,52,35.11,50.18,33.59Z"/><path class="cls-11" d="M32.26,42.28a2.65,2.65,0,0,0-.89.17,2.54,2.54,0,1,0-2.53,2.73,1.16,1.16,0,0,1,.9.37c.57.79,1.18,1.82,2.52,1.82a2.55,2.55,0,1,0,0-5.09Z"/><path class="cls-8" d="M25.92,29.18C24.41,34.81,25.39,40,28.1,40.69s6.13-3.25,7.64-8.88.89-12.47-1.82-13.2S27.43,23.56,25.92,29.18Z"/><path class="cls-8" d="M48.81,23.86c-.46-.55-.57-.82-1.29-1.75A13,13,0,0,0,42,18.21c-3.64-1.43-7.18-1.07-7.93.81s1.6,4.57,5.23,6a14.58,14.58,0,0,0,1.67.53,4.52,4.52,0,0,1,2.49,1.64,11.43,11.43,0,0,0,.94,1.07c2.41,2.41,5.36,3.38,6.58,2.16S51,26.48,48.81,23.86Z"/><path class="cls-12" d="M42,46.6a8.25,8.25,0,0,1,1.52-1.41,6.25,6.25,0,0,1,2.64-1.25,3,3,0,0,1,1.13-.61,9.83,9.83,0,0,1,2.36-.13c.33,0,.72.09.71.42,0,1.35,0,4-.69,4.9a4.52,4.52,0,0,1-3.13,1.34c-.87,0-3.18-2-4.32-2.61A.5.5,0,0,1,42,46.6Z"/><path class="cls-9" d="M48.17,39.69a1.09,1.09,0,0,0-1.09-1.09,1.06,1.06,0,0,0-.53.15l-2-4.44a1.13,1.13,0,0,0-1.48-.57l-.42.19a1.12,1.12,0,0,0-.57,1.47L44,39.7H44a1.09,1.09,0,1,0,0,2.17,1.07,1.07,0,0,0,.83-.4v0a1.12,1.12,0,0,0,1.47.57l.42-.19a1.1,1.1,0,0,0,.64-1.14A1.08,1.08,0,0,0,48.17,39.69Z"/><path class="cls-13" d="M48.65,33.91c.23-.23.45-1.55-.49-1.86-.94-.15-3.15,1-2.89,2.43A7.81,7.81,0,0,0,48.65,33.91Z"/><path class="cls-13" d="M41.28,36.3a9.5,9.5,0,0,1-5.23,2.3s1.16-4.29,4.26-3.26C40.31,35.34,41.45,36.16,41.28,36.3Z"/><path class="cls-14" d="M41.28,36.3a9.5,9.5,0,0,1-5.23,2.3s2-3.88,4.6-3C40.65,35.65,41.45,36.16,41.28,36.3Z"/><path class="cls-14" d="M48.63,33.94c.22-.2.51-.89-.31-1.49-.79-.33-3.31.82-3.07,2.07A8.67,8.67,0,0,0,48.63,33.94Z"/><circle class="cls-15" cx="38.16" cy="37.05" r="1.08"/><circle class="cls-15" cx="46.86" cy="33.62" r="0.96"/><path class="cls-8" d="M47.57,30.5c-.92.12-2.69,2.61-2.87,2.15a1.7,1.7,0,0,1,0-1.24c.13-.36,2.16-1.26,2.16-1.26Z"/><path class="cls-8" d="M40.65,33.05c.26,0,.54,0,.45.57s-3.31.8-4.56,1.43-2,2.85-2,2.85.36-2.74,1.18-3.34S37.84,33.33,40.65,33.05Z"/><circle class="cls-14" cx="37.61" cy="36.83" r="0.28"/><path class="cls-14" d="M37.42,37.24s.16.54,1.12.47"/><path class="cls-14" d="M37.43,37.23a.76.76,0,0,0,.5.32,1.4,1.4,0,0,1,.6.15v0a.62.62,0,0,1-.68,0,.73.73,0,0,1-.45-.5Z"/><circle class="cls-14" cx="46.36" cy="33.33" r="0.28"/><path class="cls-14" d="M46.16,33.74s.16.55,1.12.47"/><path class="cls-14" d="M46.17,33.74a.78.78,0,0,0,.5.32,1.42,1.42,0,0,1,.61.14v0a.6.6,0,0,1-.67,0,.78.78,0,0,1-.46-.51Z"/><path class="cls-16" d="M42.2,46.68c1.32-.45,2.17-1.45,4.11-1.92,1.21-.53,2-1,2.8-1.27.19-.06,1.11-.18,1.11.06a9.64,9.64,0,0,1-1.14,4,4.41,4.41,0,0,1-2.72,1.08,14.24,14.24,0,0,1-3.79-1.28C42.36,47.22,42,46.84,42.2,46.68Z"/><path class="cls-14" d="M42.21,46.68c1.32-.45,2.17-1.45,4.11-1.92,1.21-.53,2-1,2.8-1.27.19-.06,1.1-.18,1.1.06-1,.48-1.18.94-2.53,1.53,0,0-.1.13-.13.15l-.57.24s-.1-.08-.11-.07,0,.1,0,.11l-.73.28s-.27,0-.3.05a16.15,16.15,0,0,1-3.71,1"/><path class="cls-14" d="M45.84,45.84a15.66,15.66,0,0,1-3.71,1c0-.09,0,0,.08-.12"/><rect class="cls-8" x="71.33" y="79.87" width="6.87" height="17.11" rx="1" ry="1"/><rect class="cls-17" x="72.77" y="80.85" width="2" height="15.16" rx="1" ry="1"/><path class="cls-18" d="M74.77,88.43s.81-5,8.47-2c5.39,2.16,7.2-.94,7.2-.94"/><rect class="cls-19" x="34.68" y="38.68" width="4.8" height="7.98" rx="2.4" ry="2.4" transform="translate(75.06 0.8) rotate(83.2)"/><rect class="cls-19" x="48.85" y="34.42" width="4.23" height="5.63" rx="1.9" ry="1.9" transform="translate(81.91 -17.78) rotate(83.2)"/></g></g></svg>