<svg xmlns="http://www.w3.org/2000/svg" viewBox="0 0 100 100"><defs><style>.cls-1{fill:#a4bedd;}.cls-2{fill:#33261e;}.cls-3{fill:#3a2c22;}.cls-4{fill:#352820;}.cls-5{fill:#4f3b26;}.cls-6{fill:#473729;}.cls-7{fill:#261d17;}.cls-8{fill:#ccc;}</style></defs><title>PUG</title><g id="Layer_7" data-name="Layer 7"><rect class="cls-1" width="100" height="100" rx="4" ry="4"/><path class="cls-2" d="M42.33,19.31a15.06,15.06,0,0,0-17.51,24.5"/><path class="cls-3" d="M29.61,62.74c-3.29-.11-4.07.32-7.71,1.18l-17,6.13a6.25,6.25,0,0,0-3.75,8l.36,1c1.17,3.23,4.89,5.23,8,3.75,1.64-.79,4.81-2.38,6.85-2.48,6.43-.31,11.1,6,15.13,6.75,6.71,1.2,10-3.27,11.21-10S36.43,63,29.61,62.74Z"/><path class="cls-4" d="M6.93,75.52l17-6.13c3.64-.86,4.43-1.29,7.72-1.17,4.22.14,8.69,3,11.2,6.8C42.4,68.94,35.76,63,29.64,62.74c-3.29-.11-4.08.32-7.72,1.18L5,70.05A6.25,6.25,0,0,0,1.2,78l.36,1a6.6,6.6,0,0,0,1.27,2.1A6.24,6.24,0,0,1,6.93,75.52Z"/><path class="cls-5" d="M89.15,47.87c0-7.4-.32-21.77-.32-21.77,0-7.51-5.61-13.66-12.47-13.66H40.6c-6.86,0-16.5,5.9-16.5,13.41V53.52c0,8.26,7.43,5.5,7.14,13.48-.34,9.33,0,32.81,0,32.81H87.52c14.27.09,12.48,2,12.48-13.66V68.63l.25-5.24C100.25,56.27,89.15,54.86,89.15,47.87Z"/><path class="cls-5" d="M84.45,37.77a22.67,22.67,0,0,1-45.34,0"/><rect class="cls-5" x="23.84" y="12.44" width="60.71" height="41.94" rx="4" ry="4"/><path class="cls-6" d="M37.22,65.25c.22-8-5.49-5.21-5.49-13.47V24.11c0-5.06,3.37-9.38,7.17-11.67H36.31c-7.61-1-12.67,3.15-12.67,13.41V53.52c0,8.26,5.7,5.5,5.48,13.48-.26,9.33,0,32.81,0,32.81h8.09C37.16,94.29,37,73.32,37.22,65.25Z"/><path class="cls-2" d="M56.67,19.47A15.06,15.06,0,1,1,73.12,44.69"/><path class="cls-3" d="M62.44,50.71a9.94,9.94,0,0,0-4.25-7.83,9.36,9.36,0,0,0,4.1-7.69,9.65,9.65,0,0,0-9.79-9.5,9.85,9.85,0,0,0-7.77,3.77A9.83,9.83,0,0,0,36.43,25a9.65,9.65,0,0,0-9.8,9.49A9.43,9.43,0,0,0,31,42.36c-2.86,2-4.7,4.89-4.7,8.12,0,6.08,6.38,11,14.24,11,1.15,0,5.79.16,7.11.2l14.7.1V51.3C62.38,51.1,62.44,50.92,62.44,50.71Z"/><path class="cls-2" d="M45.84,61.48c-7.86,0-14.23-4.92-14.23-11a10.05,10.05,0,0,1,4.7-8.12,9.41,9.41,0,0,1-4.4-7.92A9.53,9.53,0,0,1,39,25.35a10.23,10.23,0,0,0-2.73-.4,9.64,9.64,0,0,0-9.79,9.49,9.43,9.43,0,0,0,4.39,7.92,10.05,10.05,0,0,0-4.7,8.12c0,6.08,6.37,11,14.23,11"/><path class="cls-2" d="M29.83,37.31a4.55,4.55,0,1,0,9.1,0Z"/><path class="cls-2" d="M42.57,37.44a4.55,4.55,0,1,0,9.09,0Z"/><path d="M44,37.44a3.11,3.11,0,0,0,6.22,0Z"/><path d="M37.49,37.31a3.11,3.11,0,1,1-6.22,0"/><path class="cls-7" d="M44.43,46c-1.34.95-6.1.85-7.57,0s-1.34-4.45,0-5.41,6.38-1,7.57,0S45.77,45,44.43,46Z"/><circle class="cls-8" cx="47.35" cy="39" r="1.05"/><circle class="cls-8" cx="49.26" cy="38.29" r="0.53"/><circle class="cls-8" cx="34.38" cy="38.87" r="1.05"/><circle class="cls-8" cx="36.35" cy="38.2" r="0.53"/></g></svg>