<svg xmlns="http://www.w3.org/2000/svg" xmlns:xlink="http://www.w3.org/1999/xlink" viewBox="0 0 100 100"><defs><style>.cls-1{fill:none;}.cls-2{clip-path:url(#clip-path);}.cls-3{fill:#1c1e19;}.cls-4{fill:#c7b8c5;}.cls-5{fill:#4f4a4f;}.cls-6{fill:#453e45;}.cls-7{fill:#4c4939;}.cls-8{fill:#5e5b50;}.cls-9{fill:#444144;}.cls-10{fill:#3f393f;}.cls-11{fill:#c3c4c8;}.cls-12{fill:#201823;}.cls-13{fill:#b6b6b7;}.cls-14{fill:#fff;}.cls-15{fill:#4f4c3f;}.cls-16{fill:#dddad3;}.cls-17{fill:#eae7e1;}.cls-18{fill:#b28730;}.cls-19{fill:#dbc0ba;}</style><clipPath id="clip-path"><path class="cls-1" d="M96,100.08H4.15a4,4,0,0,1-4-4V4.18a4,4,0,0,1,4-4H96a4,4,0,0,1,4,4v91.9A4,4,0,0,1,96,100.08Z"/></clipPath></defs><title>Artboard 16</title><g id="raccoon"><g class="cls-2"><path class="cls-3" d="M9.15,87l2.38-2.72L9.76,87.47a.38.38,0,0,1-.66-.36A.18.18,0,0,1,9.15,87Z"/><path class="cls-3" d="M12,89.77l3.49-4.29-2.87,4.73a.38.38,0,0,1-.65-.4Z"/><path class="cls-3" d="M15.05,92.26l4.61-5.79-4,6.23a.38.38,0,0,1-.52.11.38.38,0,0,1-.12-.52Z"/><path class="cls-3" d="M18,95.18,21,90.32l-2.28,5.21a.39.39,0,0,1-.5.19.37.37,0,0,1-.19-.49Z"/><path class="cls-3" d="M21.54,97.11l2.28-4.3-1.59,4.6a.38.38,0,0,1-.48.23.37.37,0,0,1-.23-.48A.08.08,0,0,1,21.54,97.11Z"/><path class="cls-3" d="M5.61,84.48l4.48-3.25-4,3.83a.37.37,0,1,1-.52-.54Z"/><path class="cls-3" d="M3.37,80.87,6.17,79,3.85,81.45a.37.37,0,0,1-.53,0,.38.38,0,0,1,0-.53Z"/><path class="cls-3" d="M87.84,77.28,85,79.44l2.38-2.71a.38.38,0,0,1,.53,0,.37.37,0,0,1,0,.53Z"/><path class="cls-3" d="M90.34,78.68l-2.73,1,2.51-1.49a.25.25,0,0,1,.34.09.24.24,0,0,1-.08.34Z"/><path class="cls-3" d="M85.46,74.74l-.84,2.8.35-2.9a.26.26,0,0,1,.28-.22.25.25,0,0,1,.22.28S85.46,74.73,85.46,74.74Z"/><path class="cls-3" d="M65.67,95.21l1.49-1.08L66,95.57a.26.26,0,0,1-.36,0,.24.24,0,0,1,0-.35A.12.12,0,0,1,65.67,95.21Z"/><path class="cls-3" d="M68,97l1.84-1.65-1.35,2.07a.32.32,0,0,1-.45.1.33.33,0,0,1-.1-.45Z"/><path class="cls-3" d="M71,99l2.21-2.31-1.61,2.76a.37.37,0,0,1-.51.14A.39.39,0,0,1,70.9,99Z"/><path class="cls-3" d="M74.37,100.62l2.2-4.69-1.5,5a.38.38,0,0,1-.72-.22A.17.17,0,0,1,74.37,100.62Z"/><path class="cls-3" d="M79.22,101.59l-.7-7.76L80,101.49a.36.36,0,0,1-.3.43.38.38,0,0,1-.44-.29Z"/><path class="cls-3" d="M83.63,100.22l-1.5-4.49,2.19,4.2a.38.38,0,0,1-.15.51.39.39,0,0,1-.51-.16Z"/><path class="cls-4" d="M96,99.9H4.15a4,4,0,0,1-4-4V4a4,4,0,0,1,4-4H96a4,4,0,0,1,4,4V95.9A4,4,0,0,1,96,99.9Z"/><path class="cls-5" d="M13.38,99.7c0-35.92,16.78-65,37.47-65s37.47,29.12,37.47,65"/><path id="ear" class="cls-5" d="M80.36,16.55c-1.12-2.32-5.33-2.61-9.42-.64s-6.48,5.45-5.36,7.77l4.58,5.53c2.21,1.32,5.73-.87,8.21-4.66C81.4,19.89,80.36,16.55,80.36,16.55Z"/><path id="ear-2" data-name="ear" class="cls-6" d="M74.83,20.36c-.5-1-2.38-1.16-4.19-.29s-2.89,2.42-2.39,3.46l2,2.46c1,.58,2.55-.39,3.65-2.08A4.51,4.51,0,0,0,74.83,20.36Z"/><path id="ear-3" data-name="ear" class="cls-7" d="M98.21,81c0-1.06-1.47-2-3.34-2s-3.41.78-3.44,1.85l.65,2.9c.57.9,2.28.75,3.9-.18A4.16,4.16,0,0,0,98.21,81Z"/><path id="ear-4" data-name="ear" class="cls-8" d="M97.2,81.17c0-.79-1.09-1.46-2.48-1.49s-2.52.58-2.54,1.37l.48,2.15c.42.67,1.68.56,2.89-.13A3.11,3.11,0,0,0,97.2,81.17Z"/><path class="cls-9" d="M83.69,70.42a7.94,7.94,0,0,0-4.23-1.48,6.47,6.47,0,0,0-5,2.57A8.26,8.26,0,0,1,72.28,73C70.48,74,69,74.91,68.67,77a4.33,4.33,0,0,0,1.24,3.74,19.1,19.1,0,0,1,1.31,2.42l-.51,0a10.17,10.17,0,0,0-4.62-1.86,20.45,20.45,0,0,0-3.9-.33c-3,0-5-.17-7.48-1.62-3.77-2.22-3.48-3.2-4.81-4-1.85-1.16-6.12-1.73-7,.26a2.85,2.85,0,0,0,.47,2.3,23.83,23.83,0,0,0-8.73-.44c-1.14.14-1.64.65-1.75,1.36-2.95-3.52-8.4-4.41-11.52-6.79a17.09,17.09,0,0,0-3.77-2,8.64,8.64,0,0,0-.78,2.93c.11,4.3,3.37,9.38,5.29,11.5,2.1,2.33,4.5,4.28,7.39,3.09,2.18-.89,4.36-3.31,4.61-5.6,3,4.3,10.81,10.16,15.32,10.76,7.62,1,21,5.66,30.72.39a6.77,6.77,0,0,0,1.29-3.21c1.43.14,2.45.07,2.83.17C86,90.49,86.93,72.86,83.69,70.42Z"/><path id="ear-5" data-name="ear" class="cls-7" d="M82.32,68.5c-1-.32-2.29.88-2.84,2.67s-.17,3.5.85,3.81l3,.17c1-.3,1.35-2,.89-3.8A4.15,4.15,0,0,0,82.32,68.5Z"/><path id="ear-6" data-name="ear" class="cls-8" d="M82.25,69.53c-.75-.23-1.69.65-2.1,2s-.13,2.59.63,2.82l2.19.12c.76-.22,1-1.46.66-2.81A3.09,3.09,0,0,0,82.25,69.53Z"/><path id="ear-7" data-name="ear" class="cls-5" d="M33.14,9c-2.45.82-3.26,5-1.81,9.27s4.59,7.12,7,6.3l6-3.86c1.59-2-.14-5.8-3.6-8.73C36.58,8.41,33.14,9,33.14,9Z"/><path id="ear-8" data-name="ear" class="cls-6" d="M36.22,15c-1.09.37-1.45,2.21-.81,4.12s2,3.17,3.13,2.8l2.69-1.71c.71-.91-.06-2.58-1.6-3.88A4.5,4.5,0,0,0,36.22,15Z"/><path class="cls-6" d="M74.62,34A17.45,17.45,0,0,0,74,27.2a12.71,12.71,0,0,0-8.19-8.14c-2.26-.72-7.88-1.18-16.27-2.92a14,14,0,0,0-8.61.68c-3.67,1.65-6.19,5.1-7.3,9.45a17.38,17.38,0,0,1-2.72,4.85c-2.55,3.49-4.57,6.53-3.34,10.76a9.13,9.13,0,0,0,5.72,6c2,.71,7.83,8,18.27,9,9.75.27,15.83-3.85,17.51-4.15A9.49,9.49,0,0,0,76.63,45c.43-2.63-.66-5.58-1.43-7.81A10,10,0,0,1,74.62,34Z"/><path class="cls-10" d="M66.13,27.35c-4.7-2.71-10.14-2.51-13.79.1-2.78-4.25-8.81-6.09-14.61-4.09-1.46.5-3.08.73-3.68,2A54.51,54.51,0,0,1,28.68,35c-.56.81.18,2,.51,2.91a10.38,10.38,0,0,0,7,6.43,14.19,14.19,0,0,1,5.6,3.45A13.18,13.18,0,0,0,49.38,51a13.53,13.53,0,0,0,7-1,17.69,17.69,0,0,1,6.53-1.8,10.44,10.44,0,0,0,8.81-5C74.75,38,72.24,30.88,66.13,27.35Z"/><path class="cls-11" d="M67.69,31.45c-4.7-2.72-10.14-2.51-13.79.09-2.78-4.25-8.81-6.08-14.61-4.09-6.68,2.3-10.5,8.8-8.54,14.51a10.34,10.34,0,0,0,7,6.42,14.21,14.21,0,0,1,5.6,3.46,13.18,13.18,0,0,0,7.59,3.3,13.53,13.53,0,0,0,7-1,17.88,17.88,0,0,1,6.53-1.8,10.43,10.43,0,0,0,8.81-5C76.31,42.09,73.8,35,67.69,31.45Z"/><ellipse class="cls-12" cx="64.23" cy="41.22" rx="5.09" ry="9.41" transform="translate(-8.65 63.87) rotate(-49.95)"/><ellipse class="cls-12" cx="40.83" cy="37.9" rx="9.41" ry="5.09" transform="translate(-11.29 18.22) rotate(-22.19)"/><path class="cls-12" d="M55.94,39.64c-.49,3.38-2.37,5.9-4.2,5.63s-2.9-3.22-2.41-6.6c0,0,2.13-12.56,5.1-12.49C57.73,26.25,55.94,39.64,55.94,39.64Z"/><ellipse class="cls-13" cx="50.94" cy="50.57" rx="4.12" ry="5.5" transform="translate(-5.41 95.02) rotate(-83.05)"/><ellipse class="cls-12" cx="51.7" cy="50.13" rx="3.17" ry="4" transform="translate(-4.31 95.39) rotate(-83.05)"/><path d="M63.79,38.27a3.22,3.22,0,1,1-3.21-3.22A3.22,3.22,0,0,1,63.79,38.27Z"/><path d="M48.29,36.32a3.22,3.22,0,1,1-3.22-3.22A3.22,3.22,0,0,1,48.29,36.32Z"/><path class="cls-14" d="M60.72,37.54a1.22,1.22,0,1,1-1.22-1.22A1.21,1.21,0,0,1,60.72,37.54Z"/><ellipse class="cls-14" cx="61.11" cy="38.81" rx="0.55" ry="0.54"/><circle class="cls-14" cx="43.98" cy="35.6" r="1.22"/><ellipse class="cls-14" cx="45.59" cy="36.86" rx="0.55" ry="0.54"/><path class="cls-15" d="M24.38,88.17c-2.36-2.61-5.79-5.66-6.21-6L7.68,73.27a4.25,4.25,0,0,1-.49-6c1.51-1.77,3.94,2.45,6,3.55,2.54,1.37,6.55,1.9,10.46,4.85,3.4,2.61,9.63,3.38,12.3,7.81,1.62,2.68-1.27,6.56-4.17,7.75S26.48,90.49,24.38,88.17Z"/><path class="cls-16" d="M74.94,90c-1.1-3.78-4.22-4.44-6.56-5a20.47,20.47,0,0,0-3.9-.32c-3,0-5-.17-7.48-1.63-3.77-2.21-3.48-3.2-4.81-4-1.85-1.16-6.12-1.73-7,.26s3.88,6.86,5.85,7.8a98.08,98.08,0,0,1,11.57,7c.83.57,3.93,2.59,4.85,2.37C70.91,95.68,76.59,95.55,74.94,90Z"/><path class="cls-3" d="M19.42,80.5,22,77.87,20,81a.39.39,0,0,1-.53.11.37.37,0,0,1-.1-.52Z"/><path class="cls-3" d="M16,78.43l2.54-2-2,2.53A.37.37,0,0,1,16,79a.38.38,0,0,1-.06-.53Z"/><path class="cls-7" d="M25.33,99.6A12.8,12.8,0,0,1,24,93.94c0-7,5.75-11.8,12.71-12.71C49,79.64,55.43,87.51,62.53,87.64c7.34.13,4.76-.57,9.13-.69,7-.19,17.42,1.3,17.42,12.49"/><path class="cls-7" d="M24.86,82.79c-3.74-1.07-9.75-1.92-10.3-2.21l-13.5-7a4.7,4.7,0,0,0-6.31,2c-1.18,2.29,4.16,3,6.15,4.64,2.47,2,4.7,5.92,9.36,8.68,4.1,2.39,7.51,8.44,13.17,9.32,3.42.53,7.8-4.16,7.8-7.62S31.23,84.61,24.86,82.79Z"/><path class="cls-17" d="M51.7,96.42C44.75,95.49,30,82,36.92,81.13c12.25-1.59,18.7,6.28,25.8,6.41,7.35.13,4.76-.56,9.14-.68,7-.2,15.14,3.31,10.56,10C72.67,102.07,59.32,97.43,51.7,96.42Z"/><path class="cls-7" d="M92.69,86.89a8.35,8.35,0,0,0,1.13-3A6,6,0,0,0,92,78.7c-.82-.76-3.14-2.1-6.38-4.55a6.66,6.66,0,0,0-3.82-1.45,6.44,6.44,0,0,0-5,2.57,8.5,8.5,0,0,1-2.15,1.53c-1.8,1-3.28,1.87-3.61,3.93a4.32,4.32,0,0,0,1.24,3.73c.73.72,1.73,5,6,7.54,4.12,2.09,7.56,1.56,8.34,1.77A4.48,4.48,0,0,0,91.33,92a8.15,8.15,0,0,0,1-3.64A4.79,4.79,0,0,1,92.69,86.89Z"/><path class="cls-15" d="M84.4,96.19c-1.1-3.77-4.22-4.44-6.56-4.94a20.45,20.45,0,0,0-3.9-.33c-3,0-5-.17-7.48-1.63-3.77-2.21-3.48-3.19-4.81-4-1.85-1.16-6.12-1.73-7,.26s3.88,6.86,5.85,7.81a96.54,96.54,0,0,1,11.57,7c.83.58,3.93,2.59,4.85,2.38C80.37,101.92,86,101.79,84.4,96.19Z"/><ellipse class="cls-9" cx="28.96" cy="96.95" rx="5.61" ry="4.93"/><circle class="cls-18" cx="88.27" cy="85.15" r="2.34"/><circle class="cls-14" cx="87.81" cy="84.93" r="1.05"/><ellipse class="cls-14" cx="88.64" cy="86.42" rx="0.49" ry="0.51" transform="translate(-23.53 138.8) rotate(-69.31)"/><circle class="cls-18" cx="78.73" cy="79.3" r="2.34"/><circle class="cls-14" cx="78.26" cy="79.08" r="1.05"/><ellipse class="cls-14" cx="79.09" cy="80.57" rx="0.49" ry="0.51" transform="matrix(0.35, -0.94, 0.94, 0.35, -24.23, 126.09)"/><path class="cls-16" d="M84.66,84.17c0-3.4-1.24-1.8-4.82-1.8-3,0-5.26-.67-6.41-.45-1.34.26-1.76,1.4-1.14,2.64a14.94,14.94,0,0,0,6,7.54,14.72,14.72,0,0,0,8.34,1.76C90.22,93.22,84.66,87.76,84.66,84.17Z"/><circle class="cls-17" cx="79.49" cy="85.15" r="2.34"/><ellipse class="cls-9" cx="88.51" cy="94.61" rx="5.61" ry="4.93"/><circle class="cls-17" cx="82.52" cy="87.34" r="2.34"/><ellipse class="cls-19" cx="82.32" cy="84.51" rx="1.37" ry="1.61" transform="translate(-34.03 104.04) rotate(-55.28)"/><path class="cls-16" d="M66.46,89c-3.77-2.21-3.55-3-4.88-3.83-1.84-1.16-6.12-1.73-7,.26s3.63,7,5.59,7.93C63.21,94.86,68.94,90.49,66.46,89Z"/></g></g></svg>