<svg xmlns="http://www.w3.org/2000/svg" viewBox="0 0 100 100"><defs><style>.cls-1{fill:#9eccb0;}.cls-2{fill:#d6b07f;}.cls-3{stroke:#000;}.cls-3,.cls-4{stroke-linecap:round;stroke-linejoin:round;}.cls-3,.cls-6,.cls-7{opacity:0.1;}.cls-4,.cls-5{fill:#b88b24;}.cls-4{stroke:#b88b24;}.cls-7,.cls-9{fill:#262626;}.cls-8{fill:#ddb692;}.cls-10{fill:#333;}.cls-11{fill:#fff;}</style></defs><title>Artboard 13</title><g id="GOODNIGHT_PUPPER" data-name="GOODNIGHT PUPPER"><path class="cls-1" d="M96,100H4a4,4,0,0,1-4-4V4A4,4,0,0,1,4,0H96a4,4,0,0,1,4,4V96A4,4,0,0,1,96,100Z"/></g><g id="shiba"><path class="cls-2" d="M37,14.81c-4.46,3.38-6.43,14.43-3,17.15,2.33,1.89,11.21-4.29,11.21-4.29S39.12,19,37,14.81Z"/><path class="cls-3" d="M36.92,21.45c-2.65,1.77-2.27,7,.85,11.64s7.79,7,10.44,5.23Z"/><path class="cls-4" d="M37.47,16.24c-2.65,1.78-2.27,7,.85,11.65s7.8,7,10.45,5.22Z"/><path id="ear" class="cls-5" d="M74.62,20.11C72,18,66.75,20,62.93,24.6s-4.76,10.16-2.12,12.32L69.4,41c3.4.35,6.42-4.23,7.27-10.18C77.72,23.55,74.62,20.11,74.62,20.11Z"/><path id="ear-2" data-name="ear" class="cls-6" d="M67,27.77c-1.17-1-3.5-.07-5.19,2s-2.12,4.51-.95,5.48l3.83,1.82c1.51.15,2.85-1.89,3.23-4.53C68.34,29.3,67,27.77,67,27.77Z"/><path id="ear-3" data-name="ear" class="cls-2" d="M70.08,27.77c-1.18-1-3.5-.07-5.2,2s-2.11,4.51-.94,5.48l3.82,1.82c1.51.15,2.85-1.89,3.23-4.53C71.46,29.3,70.08,27.77,70.08,27.77Z"/><path class="cls-5" d="M87.5,100V94.13c0-8.71-4-29.11-5.51-37.52-2.84-16.09-16.13-29.8-32.49-29.8A29.68,29.68,0,0,0,19.82,56.43c0,8.76,3.49,16,10.91,22.09C48,79.1,37.5,100,37.5,100"/><path class="cls-2" d="M20.39,100C24.33,85.06,38,78.24,50.15,78.24c11.39,0,24.78,8.85,29.5,21.76"/><path class="cls-2" d="M71.85,53.53a11.11,11.11,0,0,0-8.9-9c-2.92-.5-5.67,1.33-7.89,3.63a24,24,0,0,1-17.3,7.35H31s0-.07,0-.11C31,49.9,28,46,22,45.13c-.54-.08-1.77,4.75-2.32,9.18a26,26,0,0,0,.58,7.55c.4,2.42,1.06,4.42,1.36,4.38A23.47,23.47,0,0,0,44.46,82.66C55.62,82.66,65,75.77,68,63.8A10.92,10.92,0,0,0,71.85,53.53Z"/><path class="cls-6" d="M41,52.58a1.09,1.09,0,0,0-1.59-.51,40,40,0,0,0-5.61,3.6,4.63,4.63,0,0,0,3.51,8.1c2.5-.06,5.51-.74,5.72-4.63C43.06,57.9,41.72,54.42,41,52.58Z"/><path class="cls-7" d="M51.1,51.74s-2.81,3.06-4.92,3c-2.82,0-5.06-3.08-5.06-3.08s2.84-3.22,5.06-3.16C48.16,48.58,51.1,51.74,51.1,51.74Z"/><path class="cls-7" d="M38.9,51a3.17,3.17,0,0,1-3.13,3c-2.83,0-5.07-3.08-5.07-3.08s2.84-3.22,5.07-3.16A3.51,3.51,0,0,1,38.9,51Z"/><path class="cls-8" d="M42.72,51.7a1.09,1.09,0,0,0-1.59-.51,40,40,0,0,0-5.61,3.6A4.8,4.8,0,0,0,34,59a4.85,4.85,0,0,0,5,3.86c2.49-.07,5.51-.75,5.72-4.64C44.82,57,43.48,53.55,42.72,51.7Z"/><g id="eye2"><path class="cls-9" d="M36.79,49.19a1.86,1.86,0,0,1-.65,3.46,1.64,1.64,0,0,1-.39,0c-1.62-.29-2.62-2.27-2.62-2.27s1.95-1.58,3.23-1.33A1.34,1.34,0,0,1,36.79,49.19Z"/><path class="cls-10" d="M37.65,51.21s-.68,1.64-1.9,1.42c-1.62-.29-2.62-2.27-2.62-2.27Z"/><circle class="cls-11" cx="36.59" cy="50.45" r="0.52"/><circle class="cls-11" cx="35.85" cy="49.93" r="0.26"/></g><g id="eye"><path class="cls-9" d="M48.9,51.57S47.25,53.36,46,53.35c-1.65,0-3-1.81-3-1.81s1.66-1.88,3-1.85S48.9,51.57,48.9,51.57Z"/><path class="cls-10" d="M48.9,51.57S47.25,53.36,46,53.35c-1.65,0-3-1.81-3-1.81Z"/><circle class="cls-11" cx="46.49" cy="51.06" r="0.52"/><circle class="cls-11" cx="45.67" cy="50.66" r="0.26"/></g><rect class="cls-9" x="35" y="54.53" width="5.36" height="4.33" rx="0.69" ry="0.69"/><path class="cls-9" d="M44.51,58.74c-4.95,1.27-4.35.79-6.68.82a3.1,3.1,0,0,0-2.68,1.57l4.26,0a4.09,4.09,0,0,0,1.88-.47C42.21,60.15,42.38,60,44.51,58.74Z"/></g></svg>