<svg xmlns="http://www.w3.org/2000/svg" viewBox="0 0 100 100"><defs><style>.cls-1{fill:#b6d3dd;}.cls-2{fill:#7f142b;}.cls-3{fill:#6d1129;}.cls-4{fill:#e0d0bd;}.cls-5{fill:#d6b07f;}.cls-6{fill:#d8baa3;}.cls-7{fill:#262626;}.cls-8{fill:#4d4d4d;}.cls-9{fill:#fff;}.cls-10{opacity:0.1;}.cls-11{fill:#7c3f15;}.cls-12{fill:#6d3814;}.cls-13{fill:#75142d;}</style></defs><title>DOG IN SLEEVE</title><g id="dog_in_sleeve" data-name="dog in sleeve"><path class="cls-1" d="M96,99.91H4a4,4,0,0,1-4-4V4A4,4,0,0,1,4,0H96a4,4,0,0,1,4,4V95.91A4,4,0,0,1,96,99.91Z"/><path class="cls-2" d="M80,48.65C82.3,30,68.4,12.86,49.62,12.86a33.95,33.95,0,0,0-23.57,9.43L0,47.67V87.15A12.81,12.81,0,0,0,12.77,100L50,100.1,72.85,67.91C76.93,62.53,79.16,55.82,80,48.65Z"/><path class="cls-3" d="M80.47,41.17C80.47,22.31,69.66,15,50.78,15,42.94,15,33,28.45,32.23,32.39c-1.57,7.81-.1,17.83.39,18.93C35.55,58,40.85,68.87,47.07,71.61c4.9,2.17,17.34-.12,22.13-2.11a6.83,6.83,0,0,0,3.06-2.43A47.83,47.83,0,0,0,80.47,41.17Z"/><path class="cls-4" d="M70.47,53.11c-.27-.52,2.12-3,2.06-3.61-.39-3.44.26-4.48.26-8.33,0-5.54-3.52-5.71-5.28-12.36-1.9-.65-2-3.38-3.48-4.17-2.21-1.19-4.81-1.15-7.62-2a5.41,5.41,0,0,0-1.74-.27c-9.89.46-17,8.47-17,18.52,0,5.95,5.66,13.37,6.25,18.44,1.49,4.87,4.26,9.37,9.48,9.37h9.15c5.22,0,8.25-4.17,9.49-9.37C71.9,55.71,71.56,55.23,70.47,53.11Z"/><g id="eyes"><path class="cls-5" d="M69.53,29.08a29.63,29.63,0,0,0-7.06-5.26c-.21-.11-1.24-.12-1.43-.21-.79-.38.18,10.17.31,14.9,0,1.89,1,6.89,1,8.26a6.32,6.32,0,0,0,6.31,6.31c3.49,0,5.95-2.85,6.32-6.31.26-2.47-1.87-5.24-1.89-5.4C72,33.08,73.32,33.24,69.53,29.08Z"/><path class="cls-5" d="M50.39,23.12C35.81,29.53,35.29,42,41.28,51.91q.12-.87.27-1.65a6.31,6.31,0,0,0,11.57-3.49c0-2.31,3.69-5.16,3.91-7.45C57.58,33.77,51.78,22.51,50.39,23.12Z"/><path class="cls-6" d="M64.19,50a6.51,6.51,0,0,1,.16-6.28H73a6.33,6.33,0,0,1,.9,3.29,6.42,6.42,0,0,1-.73,3"/><path class="cls-7" d="M65.75,48.69A3.41,3.41,0,0,1,65.27,47,3.37,3.37,0,0,1,65.86,45h5.69A3.37,3.37,0,0,1,72.13,47a3.44,3.44,0,0,1-.47,1.75"/><path class="cls-8" d="M71.67,48.68A3.49,3.49,0,0,0,72.13,47H65.27a3.89,3.89,0,0,0,.48,1.76"/><circle class="cls-9" cx="70.5" cy="47" r="0.98"/><circle class="cls-9" cx="68.47" cy="46.87" r="0.49"/><g id="eyes-2" data-name="eyes"><path class="cls-10" d="M59.55,68.69c-5.22,0-8-5-9.48-9.82-.59-5.08-6.25-12.73-6.25-18.68,0-8.5,5.11-15.61,12.67-17.85-.16,0-.31-.12-.47-.17a5.18,5.18,0,0,0-1.74-.3c-9.89.46-17,8.46-17,18.5,0,6,5.67,13.62,6.25,18.7,1.5,4.87,4.27,9.62,9.49,9.62h6.51Z"/><path class="cls-6" d="M42.18,49.5a6.55,6.55,0,0,1,.17-6.28c3,0,5.48,0,8.66,0a6.57,6.57,0,0,1,.17,6.29"/><path class="cls-7" d="M43.82,48.31a3.46,3.46,0,0,1,.11-3.66h5.69a3.41,3.41,0,0,1,.11,3.66"/><path class="cls-8" d="M49.74,48.3a3.4,3.4,0,0,0,.47-1.73H43.35a3.72,3.72,0,0,0,.48,1.75"/><circle class="cls-9" cx="48.57" cy="46.62" r="0.98"/><circle class="cls-9" cx="46.54" cy="46.48" r="0.49"/></g></g><path class="cls-5" d="M64.13,53.08A4.76,4.76,0,0,0,61,54.27a4.75,4.75,0,1,0,0,7.11,4.74,4.74,0,1,0,3.13-8.3Z"/><rect id="nose" class="cls-11" x="54.95" y="50.76" width="12.5" height="9.11" rx="1.46" ry="1.46"/><path class="cls-12" d="M62,59.86c-2.22,0-4-2.42-4-4.57s1.59-4.53,3.61-4.53H59c-2.22,0-4,2.39-4,4.55s1.81,4.55,4,4.55h3Z"/><path class="cls-13" d="M9.37,87.1V38.94L0,48.45V87.93a12.49,12.49,0,0,0,12.38,12.81h3.53C12,98,9.37,93,9.37,87.1Z"/></g></svg>