<svg xmlns="http://www.w3.org/2000/svg" viewBox="0 0 100 100"><defs><style>.cls-1{fill:#b4c1a3;}.cls-2{fill:#ffc5dd;}.cls-3{fill:#ffb3d6;}.cls-4{fill:#fff;}.cls-5{fill:#f7f7f7;}.cls-6{fill:none;stroke:#fff;stroke-linecap:round;stroke-miterlimit:10;stroke-width:0.5px;}.cls-7{fill:#f2f2f2;}.cls-8{fill:#4d4d4d;}.cls-9{fill:#e8e8e8;}.cls-10{fill:#262626;}.cls-11{fill:#ccc;}</style></defs><title>STRESS CAT</title><g id="stress"><rect class="cls-1" width="100" height="100" rx="4" ry="4"/><polyline class="cls-2" points="15.9 30.6 18.78 62.57 32.33 45.31 15.9 30.6"/><polyline class="cls-2" points="87.23 31.95 66.75 40.13 75.18 62.31"/><path class="cls-3" d="M87,33.87a68,68,0,0,0-3.85,8.23,14.89,14.89,0,0,1-3.41,1.83c-5.66,2.33-11.32,1.61-12.65-1.61"/><path class="cls-4" d="M99.67,69.15a24.83,24.83,0,0,0-16.84-6.58H81.18V54.35A16.8,16.8,0,0,0,64.42,37.6h-35A16.8,16.8,0,0,0,12.67,54.35v8.46a25,25,0,0,0,10.2,20.06,24.6,24.6,0,0,0-.45,4.65v7A25.11,25.11,0,0,0,23,99.76c15.69.22,55.09.08,72.5.35a4.27,4.27,0,0,0,4.33-4.27C99.79,89.06,99.77,76.05,99.67,69.15Z"/><path class="cls-4" d="M87.57,31.44c1.32,3.21-2.19,7.71-7.86,10.05s-11.32,1.61-12.65-1.6"/><path class="cls-3" d="M30,43.05c-1.9,2.92-6.95,3-11.28.19a13.67,13.67,0,0,1-1.87-1.45c-.38-4.64-.21-3.76-.46-8.93"/><path class="cls-4" d="M31.2,40.88c-1.89,2.92-6.94,3-11.28.2S13.61,33.62,15.5,30.7"/><path class="cls-5" d="M31.74,99.76a25.11,25.11,0,0,1-.56-5.24v-7a68.69,68.69,0,0,1,.46-7.77C25.47,75.2,21.44,71,21.44,62.81v-.26a25,25,0,0,1,25-24.95h-9a25,25,0,0,0-25,24.95v.26a25,25,0,0,0,10.2,20.06,24.6,24.6,0,0,0-.45,4.65v7a24.46,24.46,0,0,0,.56,5.24c13.54.19,44.75.11,64.23.26.18,0,.34,0,.52,0C68.4,99.89,43.46,99.92,31.74,99.76Z"/><path class="cls-6" d="M29.6,57a3.87,3.87,0,0,1-4,3.81"/><path class="cls-7" d="M65.69,59.31c0-6.06-6.31-11-14.1-11a15.78,15.78,0,0,0-10.9,4.09,15.8,15.8,0,0,0-10.9-4.09c-7.79,0-14.1,4.91-14.1,11,0,4.75,3.91,8.76,9.35,10.28a7.89,7.89,0,0,0-.09.85,9.37,9.37,0,0,0,9.44,9.29A9.5,9.5,0,0,0,41,77a9.43,9.43,0,0,0,15.84-6.78c0-.26-.05-.51-.07-.76C62,67.86,65.69,63.93,65.69,59.31Z"/><rect class="cls-8" x="50.1" y="56.35" width="6.37" height="6.24"/><rect class="cls-8" x="25.05" y="56.35" width="6.37" height="6.24"/><path class="cls-9" d="M30.19,67.32c0-.29,0-1.28,0-1.56C26.75,64.91,23,64,21.92,59.31,20.76,54.2,26.66,49.7,33,48.61a18.16,18.16,0,0,0-3-.27c-7.78,0-14.09,4.91-14.09,11,0,4.75,3.91,8.76,9.34,10.28,0,.28-.08.56-.08.85A9.34,9.34,0,0,0,37.6,79.2C30.83,75.83,30.19,71.4,30.19,67.32Z"/><circle class="cls-10" cx="55.57" cy="57.12" r="5.46"/><path class="cls-8" d="M61,57.12a5.46,5.46,0,0,1-10.92,0"/><path class="cls-6" d="M59.43,57.12a3.87,3.87,0,0,1-4,3.81"/><circle class="cls-10" cx="25.97" cy="57.13" r="5.46"/><path class="cls-8" d="M31.4,57.13a5.46,5.46,0,0,1-10.92,0"/><path class="cls-6" d="M29.6,57c.09,2.73-1.55,3.81-4,3.81"/><polygon class="cls-2" points="43.86 72.06 40.67 72.06 37.62 72.06 37.62 65.76 43.86 65.76 43.86 72.06"/><circle class="cls-4" cx="56.87" cy="55.64" r="1.56"/><circle class="cls-4" cx="27.34" cy="55.82" r="1.56"/><circle class="cls-4" cx="53.16" cy="59.24" r="0.78"/><circle class="cls-4" cx="23.63" cy="59.43" r="0.78"/><g id="mouth"><ellipse class="cls-7" cx="45.7" cy="74.01" rx="4.69" ry="4.81"/><rect class="cls-7" x="41.1" y="74.01" width="4.69" height="4.81"/><rect class="cls-7" x="45.79" y="69.2" width="4.69" height="4.81"/><ellipse class="cls-7" cx="36.31" cy="74.14" rx="4.69" ry="4.81"/><rect class="cls-7" x="36.21" y="74.14" width="4.69" height="4.81" transform="translate(77.11 153.09) rotate(-180)"/><rect class="cls-7" x="31.51" y="69.33" width="4.69" height="4.81" transform="translate(67.72 143.47) rotate(-180)"/></g><g id="eyebrows"><circle class="cls-11" cx="46.29" cy="52.66" r="2.34"/><polyline class="cls-11" points="46.05 54.91 46.02 50.31 55.45 50.33"/><circle class="cls-11" cx="35.27" cy="52.57" r="2.34"/><polyline class="cls-11" points="35.51 54.81 35.54 50.21 26.11 50.23"/></g></g></svg>